<svg width="56" height="56" viewBox="0 0 56 56" fill="none" xmlns="http://www.w3.org/2000/svg">
<circle cx="28" cy="28" r="26" fill="white" stroke="#D8DDE0" stroke-width="4"/>
<path d="M28 2.0443C28 0.915246 28.9165 -0.00779534 30.0425 0.0745657C33.0203 0.292365 35.9486 0.985403 38.7151 2.13134C42.1123 3.53848 45.199 5.60094 47.799 8.20098C50.399 10.801 52.4615 13.8877 53.8686 17.2848C55.2758 20.682 56 24.323 56 28C56 31.677 55.2758 35.318 53.8686 38.7151C52.4615 42.1122 50.399 45.1989 47.799 47.799C45.1989 50.399 42.1122 52.4615 38.7151 53.8686C35.9486 55.0145 33.0203 55.7076 30.0425 55.9254C28.9165 56.0077 28 55.0847 28 53.9556C28 52.8266 28.9169 51.9204 30.0418 51.824C32.4822 51.6148 34.8801 51.0316 37.1505 50.0912C40.0515 48.8895 42.6875 47.1282 44.9079 44.9078C47.1282 42.6875 48.8895 40.0515 50.0912 37.1504C51.2929 34.2494 51.9113 31.1401 51.9113 28C51.9113 24.8599 51.2929 21.7506 50.0912 18.8495C48.8895 15.9484 47.1283 13.3125 44.9079 11.0921C42.6875 8.87172 40.0515 7.11043 37.1505 5.90877C34.8801 4.96836 32.4822 4.38512 30.0419 4.17596C28.9169 4.07955 28 3.17335 28 2.0443Z" fill="#219653"/>
<path d="M19.3627 26.1973C19.3627 26.5161 19.3035 26.8029 19.1852 27.0579C19.0759 27.3129 18.9211 27.5451 18.7207 27.7546C18.5295 27.9549 18.3018 28.1416 18.0377 28.3146C17.7827 28.4876 17.5141 28.6561 17.2318 28.82C17.7235 29.0659 18.1015 29.3755 18.3656 29.7489C18.6388 30.1132 18.7754 30.5139 18.7754 30.951C18.7754 31.2788 18.7116 31.5794 18.5841 31.8526C18.4566 32.1167 18.2745 32.3443 18.0377 32.5356C17.8101 32.7268 17.5323 32.8771 17.2045 32.9863C16.8766 33.0865 16.5169 33.1366 16.1253 33.1366C15.7246 33.1366 15.3604 33.0774 15.0325 32.959C14.7138 32.8406 14.436 32.6813 14.1993 32.4809C13.9716 32.2806 13.794 32.0484 13.6665 31.7843C13.5481 31.5111 13.4889 31.2288 13.4889 30.9373C13.4889 30.5002 13.6119 30.1132 13.8578 29.7762C14.1036 29.4302 14.4588 29.1251 14.9232 28.861C14.6318 28.7244 14.3541 28.5742 14.09 28.4102C13.8259 28.2463 13.5937 28.0642 13.3933 27.8638C13.2021 27.6544 13.0473 27.4267 12.9289 27.1808C12.8105 26.9259 12.7513 26.6435 12.7513 26.3339C12.7513 25.8968 12.815 25.528 12.9425 25.2275C13.07 24.9178 13.2522 24.631 13.4889 24.3669L14.8276 25.0226C14.6546 25.2593 14.5225 25.4824 14.4315 25.6919C14.3495 25.8922 14.3085 26.1199 14.3085 26.3749C14.3085 26.5935 14.3632 26.7893 14.4725 26.9623C14.5817 27.1353 14.7183 27.2947 14.8823 27.4404C15.0553 27.5861 15.2465 27.7181 15.456 27.8365C15.6654 27.9549 15.8703 28.0642 16.0707 28.1644C16.271 28.0551 16.4714 27.9321 16.6717 27.7955C16.8812 27.6589 17.0679 27.5087 17.2318 27.3448C17.4048 27.1717 17.5414 26.9896 17.6416 26.7984C17.7509 26.598 17.8055 26.3886 17.8055 26.17C17.8055 25.9059 17.7463 25.6555 17.6279 25.4187C17.5095 25.1819 17.3593 24.9725 17.1771 24.7903L18.3656 24.1073C18.657 24.335 18.8937 24.6264 19.0759 24.9816C19.2671 25.3367 19.3627 25.742 19.3627 26.1973ZM17.2454 30.8964C17.2454 30.6049 17.1453 30.3454 16.9449 30.1177C16.7537 29.8901 16.4805 29.6897 16.1253 29.5167C15.843 29.6624 15.588 29.8491 15.3604 30.0768C15.1327 30.3044 15.0189 30.5913 15.0189 30.9373C15.0189 31.2834 15.1281 31.5475 15.3467 31.7296C15.5653 31.9026 15.8248 31.9892 16.1253 31.9892C16.4258 31.9892 16.6854 31.8981 16.9039 31.716C17.1316 31.5338 17.2454 31.2606 17.2454 30.8964ZM30.2674 29.7079C30.2674 30.2452 30.1809 30.7279 30.0078 31.1559C29.8439 31.5839 29.6117 31.9436 29.3112 32.235C29.0106 32.5265 28.66 32.7496 28.2593 32.9044C27.8587 33.0592 27.4261 33.1366 26.9616 33.1366C26.4972 33.1366 26.0646 33.0637 25.6639 32.918C25.2724 32.7723 24.9309 32.5629 24.6394 32.2897C24.348 32.0074 24.1204 31.6613 23.9564 31.2515C23.7925 30.8417 23.7106 30.3727 23.7106 29.8445C23.7106 29.2981 23.7925 28.8109 23.9564 28.3829C24.1295 27.9458 24.3662 27.5815 24.6668 27.2901C24.9673 26.9987 25.3179 26.7756 25.7186 26.6208C26.1193 26.466 26.5518 26.3886 27.0163 26.3886C27.4807 26.3886 27.9087 26.4614 28.3003 26.6071C28.701 26.7437 29.0471 26.9532 29.3385 27.2355C29.6299 27.5178 29.8576 27.8638 30.0215 28.2736C30.1854 28.6834 30.2674 29.1615 30.2674 29.7079ZM28.6008 29.7762C28.6008 29.3847 28.5553 29.0523 28.4642 28.7791C28.3732 28.4968 28.2502 28.2691 28.0954 28.0961C27.9497 27.923 27.7767 27.7955 27.5763 27.7136C27.3851 27.6316 27.1848 27.5906 26.9753 27.5906C26.7659 27.5906 26.5655 27.6271 26.3743 27.6999C26.183 27.7637 26.0146 27.8821 25.8688 28.0551C25.7231 28.219 25.6048 28.4421 25.5137 28.7244C25.4226 29.0067 25.3771 29.3573 25.3771 29.7762C25.3771 30.1587 25.4226 30.4866 25.5137 30.7598C25.6048 31.0239 25.7231 31.247 25.8688 31.4291C26.0237 31.6021 26.1967 31.7296 26.3879 31.8116C26.5883 31.8935 26.7932 31.9345 27.0026 31.9345C27.203 31.9345 27.3988 31.8981 27.59 31.8252C27.7904 31.7524 27.9634 31.634 28.1091 31.4701C28.2548 31.3062 28.3732 31.0876 28.4642 30.8144C28.5553 30.5321 28.6008 30.186 28.6008 29.7762ZM34.1845 23.2331C34.4941 23.2331 34.7992 23.2741 35.0997 23.356C35.4002 23.438 35.6689 23.5427 35.9056 23.6702L35.5915 24.7357C35.4275 24.6628 35.2636 24.6037 35.0997 24.5581C34.9449 24.5126 34.7764 24.4898 34.5943 24.4898C34.2391 24.4898 33.975 24.5945 33.802 24.804C33.6381 25.0135 33.5561 25.3641 33.5561 25.8558V26.5115H35.3046V27.6863H33.5561V33H31.9579V27.6863H30.988V26.5115H31.9579V25.4597C31.9579 24.7403 32.1582 24.1893 32.5589 23.8068C32.9596 23.4243 33.5015 23.2331 34.1845 23.2331ZM44.6885 25.2138C44.0601 25.8968 43.5228 26.4978 43.0766 27.0169C42.6304 27.5269 42.2616 27.9822 41.9701 28.3829C41.6787 28.7836 41.4647 29.1433 41.3281 29.4621C41.1915 29.7808 41.1232 30.0904 41.1232 30.3909C41.1232 30.8281 41.2644 31.1696 41.5467 31.4154C41.8381 31.6613 42.257 31.7843 42.8034 31.7843C43.1768 31.7843 43.5319 31.7296 43.8689 31.6203C44.2149 31.5111 44.5655 31.3471 44.9207 31.1286L45.4125 32.276C44.9936 32.5128 44.5792 32.6904 44.1694 32.8088C43.7687 32.9271 43.3361 32.9863 42.8717 32.9863C42.3344 32.9863 41.8563 32.9226 41.4374 32.7951C41.0276 32.6585 40.6816 32.4718 40.3992 32.235C40.126 31.9983 39.9166 31.7205 39.7709 31.4018C39.6343 31.083 39.566 30.737 39.566 30.3636C39.566 29.9538 39.6434 29.5395 39.7982 29.1206C39.9621 28.7017 40.208 28.2463 40.5358 27.7546C40.8637 27.2628 41.278 26.721 41.7789 26.129C42.2889 25.5371 42.8945 24.8677 43.5957 24.121L44.6885 25.2138Z" fill="black"/>
</svg>
