<svg width="24" height="24" viewBox="0 0 24 24" fill="none" xmlns="http://www.w3.org/2000/svg">
<path fill-rule="evenodd" clip-rule="evenodd" d="M13.404 6.28771C13.6519 5.61877 14.1117 5.0395 14.7199 4.62977C15.3282 4.22003 16.0549 4 16.8 4C17.5451 4 18.2718 4.22003 18.8801 4.62977C19.4883 5.0395 19.9481 5.61877 20.196 6.28771H22.8C23.1183 6.28771 23.4235 6.40808 23.6485 6.62233C23.8736 6.83658 24 7.12717 24 7.43017C24 7.73317 23.8736 8.02376 23.6485 8.23801C23.4235 8.45226 23.1183 8.57263 22.8 8.57263H20.196C19.9481 9.24157 19.4883 9.82084 18.8801 10.2306C18.2718 10.6403 17.5451 10.8603 16.8 10.8603C16.0549 10.8603 15.3282 10.6403 14.7199 10.2306C14.1117 9.82084 13.6519 9.24157 13.404 8.57263H1.2C0.88174 8.57263 0.576515 8.45226 0.351472 8.23801C0.126428 8.02376 0 7.73317 0 7.43017C0 7.12717 0.126428 6.83658 0.351472 6.62233C0.576515 6.40808 0.88174 6.28771 1.2 6.28771H13.404ZM3.804 15.4274C4.05192 14.7584 4.51169 14.1792 5.11992 13.7694C5.72815 13.3597 6.4549 13.1397 7.2 13.1397C7.9451 13.1397 8.67185 13.3597 9.28008 13.7694C9.88831 14.1792 10.3481 14.7584 10.596 15.4274H22.8C23.1183 15.4274 23.4235 15.5477 23.6485 15.762C23.8736 15.9762 24 16.2668 24 16.5698C24 16.8728 23.8736 17.1634 23.6485 17.3777C23.4235 17.5919 23.1183 17.7123 22.8 17.7123H10.596C10.3481 18.3812 9.88831 18.9605 9.28008 19.3702C8.67185 19.78 7.9451 20 7.2 20C6.4549 20 5.72815 19.78 5.11992 19.3702C4.51169 18.9605 4.05192 18.3812 3.804 17.7123H1.2C0.88174 17.7123 0.576515 17.5919 0.351472 17.3777C0.126428 17.1634 0 16.8728 0 16.5698C0 16.2668 0.126428 15.9762 0.351472 15.762C0.576515 15.5477 0.88174 15.4274 1.2 15.4274H3.804ZM16.8 8.57263C17.1183 8.57263 17.4235 8.45226 17.6485 8.23801C17.8736 8.02376 18 7.73317 18 7.43017C18 7.12717 17.8736 6.83658 17.6485 6.62233C17.4235 6.40808 17.1183 6.28771 16.8 6.28771C16.4817 6.28771 16.1765 6.40808 15.9515 6.62233C15.7264 6.83658 15.6 7.12717 15.6 7.43017C15.6 7.73317 15.7264 8.02376 15.9515 8.23801C16.1765 8.45226 16.4817 8.57263 16.8 8.57263ZM7.2 17.7123C7.51826 17.7123 7.82348 17.5919 8.04853 17.3777C8.27357 17.1634 8.4 16.8728 8.4 16.5698C8.4 16.2668 8.27357 15.9762 8.04853 15.762C7.82348 15.5477 7.51826 15.4274 7.2 15.4274C6.88174 15.4274 6.57652 15.5477 6.35147 15.762C6.12643 15.9762 6 16.2668 6 16.5698C6 16.8728 6.12643 17.1634 6.35147 17.3777C6.57652 17.5919 6.88174 17.7123 7.2 17.7123Z" fill="black"/>
</svg>
