<svg width="24" height="24" viewBox="0 0 24 24" fill="none" xmlns="http://www.w3.org/2000/svg">
<path d="M4.82646 16.6737L5.77982 15.727C4.73594 14.7897 3.91575 13.6301 3.37975 12.3336C4.73313 8.9535 8.46656 6.33343 12 6.33343C12.9093 6.34543 13.8103 6.50762 14.6667 6.81344L15.7001 5.77342C14.5285 5.27828 13.2718 5.01563 12 5.00006C9.82694 5.08178 7.72547 5.79845 5.95529 7.06151C4.18512 8.32456 2.82385 10.0786 2.03972 12.1069C1.98676 12.2534 1.98676 12.4138 2.03972 12.5603C2.6319 14.1317 3.58671 15.541 4.82646 16.6737Z" fill="black"/>
<path d="M9.33322 12.1536C9.37958 11.5147 9.65436 10.9138 10.1073 10.4609C10.5602 10.008 11.1611 9.73319 11.8 9.68683L13.0067 8.47346C12.3305 8.29542 11.6194 8.29773 10.9444 8.48017C10.2694 8.66261 9.65404 9.01879 9.15961 9.51322C8.66519 10.0076 8.309 10.623 8.12656 11.298C7.94412 11.973 7.94181 12.6841 8.11985 13.3603L9.33322 12.1536Z" fill="black"/>
<path d="M21.9603 12.1069C21.1958 10.1157 19.8656 8.3915 18.1335 7.14678L21.3336 3.94003L20.3936 3L2.66641 20.7272L3.60644 21.6672L7.00653 18.2671C8.52249 19.1565 10.2427 19.6387 12 19.6671C14.1731 19.5854 16.2745 18.8687 18.0447 17.6057C19.8149 16.3426 21.1762 14.5886 21.9603 12.5603C22.0132 12.4138 22.0132 12.2534 21.9603 12.1069ZM14.6667 12.3336C14.6639 12.8003 14.5387 13.2582 14.3035 13.6613C14.0683 14.0645 13.7314 14.3989 13.3264 14.631C12.9215 14.8632 12.4628 14.985 11.996 14.9843C11.5292 14.9836 11.0709 14.8604 10.6666 14.627L14.2934 11.0002C14.5331 11.4041 14.6619 11.864 14.6667 12.3336ZM12 18.3338C10.6013 18.3093 9.22919 17.948 7.99989 17.2804L9.69327 15.587C10.4635 16.1215 11.397 16.3684 12.3308 16.2847C13.2645 16.201 14.1392 15.792 14.8021 15.1291C15.465 14.4661 15.8741 13.5914 15.9578 12.6577C16.0415 11.7239 15.7945 10.7904 15.2601 10.0202L17.1735 8.10681C18.7033 9.15683 19.8995 10.6238 20.6202 12.3336C19.2669 15.7137 15.5334 18.3338 12 18.3338Z" fill="black"/>
</svg>
